<?xml version="1.0" encoding="UTF-8" standalone="no"?>
<svg
   xmlns:dc="http://purl.org/dc/elements/1.1/"
   xmlns:cc="http://creativecommons.org/ns#"
   xmlns:rdf="http://www.w3.org/1999/02/22-rdf-syntax-ns#"
   xmlns:svg="http://www.w3.org/2000/svg"
   xmlns="http://www.w3.org/2000/svg"
   viewBox="0 0 1320 2400"
   height="2400"
   width="1320"
   xml:space="preserve"
   id="svg2"
   version="1.1"><metadata
     id="metadata8"><rdf:RDF><cc:Work
         rdf:about=""><dc:format>image/svg+xml</dc:format><dc:type
           rdf:resource="http://purl.org/dc/dcmitype/StillImage" /></cc:Work></rdf:RDF></metadata><defs
     id="defs6"><clipPath
       id="clipPath20"
       clipPathUnits="userSpaceOnUse"><path
         id="path18"
         d="m 2247.73,10903.7 c -18.11,7.3 -192.14,77.8 -217.12,88 -0.68,0.3 -2.16,0.9 -3.93,1.6 -2.88,1.1 -1.74,0.6 -3.13,1.2 -3,1.2 -4,1.6 -5.07,2 -0.01,-54.7 -0.03,-135.7 -0.04,-222.3 -0.01,-110.8 0,-228.5 0,-286.9 0,-112.7 0,-402.8 0,-510 0,-206.89 0,-1801.53 0,-1913.03 0,-108.57 0,-4281.77 0,-4396.77 571.83,68.7 857.8,95.44 1439.51,121.92 0,111.58 0,1218.1 0,1379.47 0,931.63 0,1587.25 0,1948.65 0,152.1 0,208.44 0,364.47 -44.06,124.51 -230.44,653.04 -278.16,786.14 -89.13,253.84 -596.43,1686.61 -636.98,1801.25 -36.36,102.8 -137.62,388.7 -169.81,480.2 -18.82,52.9 -67.95,191.5 -94.05,265.3 -20.41,57.8 -18.56,53.1 -31.22,88.8 z" /></clipPath><clipPath
       id="clipPath26"
       clipPathUnits="userSpaceOnUse"><path
         id="path24"
         d="m 2247.73,10903.7 c -18.11,7.3 -192.14,77.8 -217.12,88 -0.68,0.3 -2.16,0.9 -3.93,1.6 -2.88,1.1 -1.74,0.6 -3.13,1.2 -3,1.2 -4,1.6 -5.07,2 -0.01,-54.7 -0.03,-135.7 -0.04,-222.3 -0.01,-110.8 0,-228.5 0,-286.9 0,-112.7 0,-402.8 0,-510 0,-206.89 0,-1801.53 0,-1913.03 0,-108.57 0,-4281.77 0,-4396.77 571.83,68.7 857.8,95.44 1439.51,121.92 0,111.58 0,1218.1 0,1379.47 0,931.63 0,1587.25 0,1948.65 0,152.1 0,208.44 0,364.47 -44.06,124.51 -230.44,653.04 -278.16,786.14 -89.13,253.84 -596.43,1686.61 -636.98,1801.25 -36.36,102.8 -137.62,388.7 -169.81,480.2 -18.82,52.9 -67.95,191.5 -94.05,265.3 -20.41,57.8 -18.56,53.1 -31.22,88.8" /></clipPath><clipPath
       id="clipPath134"
       clipPathUnits="userSpaceOnUse"><path
         id="path132"
         d="m 5820.77,3760.41 c 18.11,-7.25 192.14,-77.83 217.12,-88.02 0.68,-0.25 2.16,-0.82 3.93,-1.55 2.88,-1.14 1.74,-0.65 3.13,-1.22 3,-1.23 4,-1.63 5.07,-2.04 0.01,54.69 0.03,135.7 0.04,222.33 0.01,110.84 0,228.45 0,286.88 0,112.72 0,402.86 0,510.03 0,206.85 0,1801.48 0,1913 0,108.57 0,4281.78 0,4396.78 -113.08,0 -1257.13,0 -1439.51,0 0,-111.7 0,-1340.02 0,-1501.41 0,-931.58 0,-1587.24 0,-1948.63 0,-152.1 0,-208.45 0,-364.46 44.06,-124.53 230.44,-653.05 278.16,-786.14 89.13,-253.87 596.43,-1686.65 636.98,-1801.23 36.36,-102.86 137.62,-388.76 169.81,-480.2 18.82,-52.98 67.95,-191.53 94.05,-265.37 20.41,-57.78 18.56,-53.05 31.22,-88.75 z" /></clipPath><clipPath
       id="clipPath140"
       clipPathUnits="userSpaceOnUse"><path
         id="path138"
         d="m 5820.77,3760.41 c 18.11,-7.25 192.14,-77.83 217.12,-88.02 0.68,-0.25 2.16,-0.82 3.93,-1.55 2.88,-1.14 1.74,-0.65 3.13,-1.22 3,-1.23 4,-1.63 5.07,-2.04 0.01,54.69 0.03,135.7 0.04,222.33 0.01,110.84 0,228.45 0,286.88 0,112.72 0,402.86 0,510.03 0,206.85 0,1801.48 0,1913 0,108.57 0,4281.78 0,4396.78 -113.08,0 -1257.13,0 -1439.51,0 0,-111.7 0,-1340.02 0,-1501.41 0,-931.58 0,-1587.24 0,-1948.63 0,-152.1 0,-208.45 0,-364.46 44.06,-124.53 230.44,-653.05 278.16,-786.14 89.13,-253.87 596.43,-1686.65 636.98,-1801.23 36.36,-102.86 137.62,-388.76 169.81,-480.2 18.82,-52.98 67.95,-191.53 94.05,-265.37 20.41,-57.78 18.56,-53.05 31.22,-88.75" /></clipPath></defs><g
     transform="matrix(1.3333333,0,0,-1.3333333,0,2400)"
     id="g10"><g
       transform="scale(0.122699)"
       id="g12"><g
         id="g14"><g
           clip-path="url(#clipPath20)"
           id="g16"><g
             clip-path="url(#clipPath26)"
             id="g22"><g
               transform="matrix(8.1500257,0,0,-8.1500257,-65829.387,74026.031)"
               id="g28"><path
                 id="path30"
                 style="fill:#781619;fill-opacity:1;fill-rule:nonzero;stroke:none"
                 d="m 8352.9889,7745.0425 c -2.2226,-0.8945 -23.575,-9.5483 -26.6414,-10.7958 4.3388,8.8886 7.3798,15.1014 11.3427,24.0125 3.414,-0.7163 16.827,-2.6816 19.1297,-2.3266 -2.5048,-7.0879 -2.2783,-6.5054 -3.831,-10.8901 z" /><path
                 id="path32"
                 style="fill:#781619;fill-opacity:1;fill-rule:nonzero;stroke:none"
                 d="m 8326.3475,7734.2467 c 2.1699,4.4443 4.0146,8.2197 5.8124,11.9979 -0.373,0.072 -0.8027,0.096 -1.249,0.093 -1.3642,-3.9521 -2.7529,-7.85 -4.6425,-12.123 0.031,0.013 0.059,0.024 0.079,0.032 z" /><path
                 id="path34"
                 style="fill:#781619;fill-opacity:1;fill-rule:nonzero;stroke:none"
                 d="m 8326.2684,7734.2144 c 1.8896,4.273 3.2783,8.1709 4.6425,12.123 -0.4453,0 -0.9092,-0.034 -1.3486,-0.072 -1.0791,-4.1835 -2.1299,-8.2006 -3.4053,-12.0961 0.042,0.017 0.079,0.032 0.1114,0.045 z" /><path
                 id="path36"
                 style="fill:#781619;fill-opacity:1;fill-rule:nonzero;stroke:none"
                 d="m 8332.1599,7746.2446 c 1.7979,3.7783 3.5488,7.5591 5.5303,12.0146 -0.7246,0.1519 -1.501,0.334 -2.2774,0.5244 -1.7949,-4.4882 -3.1367,-8.4941 -4.5019,-12.4462 0.4463,0 0.876,-0.021 1.249,-0.093 z" /><path
                 id="path38"
                 style="fill:#7f171b;fill-opacity:1;fill-rule:nonzero;stroke:none"
                 d="m 8330.9109,7746.3374 c 1.3652,3.9521 2.707,7.958 4.5019,12.4462 -0.7763,0.1909 -1.5527,0.3897 -2.2802,0.5762 -1.3858,-4.5605 -2.4922,-8.9106 -3.5703,-13.0942 0.4394,0.038 0.9033,0.069 1.3486,0.072 z" /><path
                 id="path40"
                 style="fill:#781619;fill-opacity:1;fill-rule:nonzero;stroke:none"
                 d="m 8326.157,7734.1695 c -0.041,-0.017 -0.087,-0.036 -0.1347,-0.055 0.33,1.7592 0.6933,3.6684 1.0839,5.6879 0.2413,0.087 0.5323,0.1992 0.8272,0.3076 -0.5566,-2.0146 -1.1387,-3.9926 -1.7764,-5.9404 z" /><path
                 id="path42"
                 style="fill:#85181c;fill-opacity:1;fill-rule:nonzero;stroke:none"
                 d="m 8327.9334,7740.1099 c -0.2949,-0.1084 -0.5859,-0.2202 -0.8272,-0.3076 0.3897,2.0195 0.8067,4.1494 1.2432,6.3481 0.3555,0.032 0.7725,0.078 1.2129,0.1152 -0.54,-2.0917 -1.0723,-4.1415 -1.6289,-6.1557 z" /><path
                 id="path44"
                 style="fill:#781619;fill-opacity:1;fill-rule:nonzero;stroke:none"
                 d="m 8326.0223,7734.1144 c -0.049,-0.02 -0.1006,-0.041 -0.1553,-0.063 0.1904,1.6733 0.4316,3.558 0.709,5.5898 0.097,0.011 0.289,0.074 0.5302,0.1611 -0.3906,-2.0195 -0.7539,-3.9287 -1.0839,-5.6879 z" /><path
                 id="path46"
                 style="fill:#8d191d;fill-opacity:1;fill-rule:nonzero;stroke:none"
                 d="m 8327.1062,7739.8023 c -0.2412,-0.087 -0.4335,-0.1499 -0.5302,-0.1611 0.2783,2.0322 0.5937,4.2109 0.9355,6.4721 0.1904,-0.014 0.4834,0.01 0.8379,0.037 -0.4365,-2.1987 -0.8535,-4.3286 -1.2432,-6.3481 z" /><path
                 id="path48"
                 style="fill:#8e191e;fill-opacity:1;fill-rule:nonzero;stroke:none"
                 d="m 8329.5623,7746.2656 c -0.4404,-0.038 -0.8574,-0.083 -1.2129,-0.1152 0.4365,2.1992 0.8926,4.4682 1.3623,6.7666 0.4473,-0.069 0.9629,-0.1519 1.5205,-0.2456 -0.585,-2.1807 -1.1309,-4.314 -1.6699,-6.4058 z" /><path
                 id="path50"
                 style="fill:#931a1e;fill-opacity:1;fill-rule:nonzero;stroke:none"
                 d="m 8331.2322,7752.6714 c -0.5576,0.094 -1.0732,0.1767 -1.5205,0.2456 0.4687,2.2983 0.9512,4.6259 1.4394,6.9423 0.5772,-0.1392 1.2549,-0.313 1.9815,-0.4995 -0.6924,-2.2803 -1.3154,-4.5078 -1.9004,-6.6884 z" /><path
                 id="path52"
                 style="fill:#9c1b20;fill-opacity:1;fill-rule:nonzero;stroke:none"
                 d="m 8328.3494,7746.1504 c -0.3545,-0.032 -0.6475,-0.051 -0.8379,-0.037 0.3408,2.2612 0.708,4.605 1.0889,6.9663 0.2842,-0.039 0.6631,-0.094 1.1113,-0.1626 -0.4697,-2.2984 -0.9258,-4.5674 -1.3623,-6.7666 z" /><path
                 id="path54"
                 style="fill:#a41c21;fill-opacity:1;fill-rule:nonzero;stroke:none"
                 d="m 8329.7117,7752.917 c -0.4482,0.069 -0.8271,0.124 -1.1113,0.1626 0.3799,2.3618 0.7744,4.7416 1.1699,7.0746 0.3262,-0.05 0.8037,-0.1552 1.3808,-0.2949 -0.4882,-2.3164 -0.9707,-4.644 -1.4394,-6.9423 z" /><path
                 id="path56"
                 style="fill:#781619;fill-opacity:1;fill-rule:nonzero;stroke:none"
                 d="m 8325.867,7734.0514 c -0.3545,-0.1407 -0.2139,-0.081 -0.3848,-0.1494 0.1748,1.5375 0.2793,3.3574 0.3545,5.3778 0.3106,0.041 0.2315,0.2749 0.7393,0.3614 -0.2774,-2.0318 -0.5186,-3.9165 -0.709,-5.5898 z" /><path
                 id="path58"
                 style="fill:#92191e;fill-opacity:1;fill-rule:nonzero;stroke:none"
                 d="m 8326.576,7739.6412 c -0.5078,-0.087 -0.4287,-0.3208 -0.7393,-0.3614 0.076,2.0205 0.1231,4.2412 0.1826,6.5801 0.6192,-0.022 0.6446,0.2851 1.4922,0.2534 -0.3418,-2.2612 -0.6572,-4.4399 -0.9355,-6.4721 z" /><path
                 id="path60"
                 style="fill:#a21c21;fill-opacity:1;fill-rule:nonzero;stroke:none"
                 d="m 8327.5115,7746.1133 c -0.8476,0.032 -0.873,-0.2749 -1.4922,-0.2534 0.06,2.3388 0.1319,4.7959 0.2579,7.2885 0.9277,-0.084 1.1357,0.082 2.3232,-0.069 -0.3809,-2.3613 -0.7481,-4.7051 -1.0889,-6.9663 z" /><path
                 id="path62"
                 style="fill:#ad1d23;fill-opacity:1;fill-rule:nonzero;stroke:none"
                 d="m 8328.6004,7753.0796 c -1.1875,0.1508 -1.3955,-0.015 -2.3232,0.069 0.1269,2.4927 0.3076,5.021 0.5839,7.5024 1.0674,-0.1123 1.5674,-0.292 2.9092,-0.4966 -0.3955,-2.333 -0.79,-4.7128 -1.1699,-7.0746 z" /><path
                 id="path64"
                 style="fill:#781619;fill-opacity:1;fill-rule:nonzero;stroke:none"
                 d="m 8325.4822,7733.902 c -0.3681,-0.1475 -0.4902,-0.1993 -0.6211,-0.252 -9e-4,1.6782 0,3.5581 0,5.6001 0.3037,0.017 0.4551,-0.072 0.9775,0.03 -0.075,-2.0204 -0.1797,-3.8403 -0.3545,-5.3778 z" /><path
                 id="path66"
                 style="fill:#92191e;fill-opacity:1;fill-rule:nonzero;stroke:none"
                 d="m 8325.8367,7739.2798 c -0.5224,-0.102 -0.6738,-0.013 -0.9775,-0.03 0,2.0419 0,4.246 0,6.5722 0.6827,-0.061 0.3008,0.035 1.1621,0.038 -0.059,-2.3389 -0.1064,-4.5596 -0.1826,-6.5801 z" /><path
                 id="path68"
                 style="fill:#a21c21;fill-opacity:1;fill-rule:nonzero;stroke:none"
                 d="m 8326.0193,7745.8599 c -0.8613,0 -0.4794,-0.099 -1.1621,-0.038 -9e-4,2.3266 -9e-4,4.7753 0,7.3071 1.0615,-0.1402 0.2217,0.1157 1.4219,0.019 -0.126,-2.4926 -0.1983,-4.9497 -0.2579,-7.2885 z" /><path
                 id="path70"
                 style="fill:#ad1d23;fill-opacity:1;fill-rule:nonzero;stroke:none"
                 d="m 8326.2772,7753.1484 c -1.2002,0.097 -0.3604,-0.1592 -1.4219,-0.019 0,2.5317 0,5.1459 -10e-4,7.8036 1.2334,-0.1757 0.6523,-0.1401 2.0068,-0.2822 -0.2763,-2.4814 -0.457,-5.0097 -0.5839,-7.5024 z" /><path
                 id="path72"
                 style="fill:#781619;fill-opacity:1;fill-rule:nonzero;stroke:none"
                 d="m 8356.8199,7755.9326 c -2.3027,-0.355 -15.7157,1.6103 -19.1297,2.3266 4.9345,11.0957 10.2733,24.1581 13.4598,33.1463 2.3223,-0.4082 14.791,-2.4917 17.2089,-2.917 -2.3086,-6.4936 -8.3368,-23.491 -11.539,-32.5559 z" /><path
                 id="path74"
                 style="fill:#781619;fill-opacity:1;fill-rule:nonzero;stroke:none"
                 d="m 8337.6902,7758.2592 c 4.9345,11.0957 10.2733,24.1581 13.4598,33.1463 -1.4335,0.2412 -2.8124,0.4761 -4.1347,0.7007 -2.9658,-9.2641 -7.0712,-22.1488 -11.6025,-33.3226 0.7764,-0.1904 1.5528,-0.3725 2.2774,-0.5244 z" /><path
                 id="path76"
                 style="fill:#82171b;fill-opacity:1;fill-rule:nonzero;stroke:none"
                 d="m 8335.4128,7758.7836 c 4.5313,11.1738 8.6367,24.0585 11.6025,33.3226 -1.3232,0.2246 -2.5898,0.4399 -3.7998,0.6426 -2.4795,-9.8721 -6.4384,-22.0434 -10.0829,-33.389 0.7275,-0.1865 1.5039,-0.3853 2.2802,-0.5762 z" /><path
                 id="path78"
                 style="fill:#951a1f;fill-opacity:1;fill-rule:nonzero;stroke:none"
                 d="m 8333.1326,7759.3598 c 3.6445,11.3456 7.6034,23.5169 10.0829,33.389 -1.2099,0.2021 -2.3632,0.3925 -3.457,0.5673 -1.9941,-10.4794 -5.8505,-21.9398 -8.6074,-33.4568 0.5772,-0.1392 1.2549,-0.313 1.9815,-0.4995 z" /><path
                 id="path80"
                 style="fill:#a81c22;fill-opacity:1;fill-rule:nonzero;stroke:none"
                 d="m 8331.1511,7759.8593 c 2.7569,11.517 6.6133,22.9774 8.6074,33.4568 -1.0937,0.1748 -2.1299,0.3345 -3.1054,0.4766 -1.7725,-10.7558 -4.5303,-22.0433 -6.8828,-33.6385 0.3262,-0.05 0.8037,-0.1552 1.3808,-0.2949 z" /><path
                 id="path82"
                 style="fill:#b11d23;fill-opacity:1;fill-rule:nonzero;stroke:none"
                 d="m 8329.7703,7760.1542 c -1.3418,0.2046 -1.8418,0.3843 -2.9092,0.4966 1.4141,12.6948 2.7783,25.0829 3.792,34.2498 2.3574,-0.437 3.1953,-0.6934 6,-1.1079 -1.7725,-10.7558 -4.5303,-22.0433 -6.8828,-33.6385 z" /><path
                 id="path84"
                 style="fill:#b11d23;fill-opacity:1;fill-rule:nonzero;stroke:none"
                 d="m 8326.8611,7760.6508 c -1.3545,0.1421 -0.7734,0.1065 -2.0068,0.2822 0,13.5947 0,28.0301 0,35.2029 2.8271,-0.5058 3.0107,-0.7548 5.7988,-1.2353 -1.0137,-9.1669 -2.3779,-21.555 -3.792,-34.2498 z" /><path
                 id="path86"
                 style="fill:#781619;fill-opacity:1;fill-rule:nonzero;stroke:none"
                 d="m 8368.3589,7788.4885 c -2.4179,0.4253 -14.8866,2.5088 -17.2089,2.917 6.0781,17.1879 15.9706,43.3161 21.5058,58.9576 4.9199,-0.8564 13.4237,-2.4008 16.5389,-2.9521 -4.4619,-12.6186 -16.8866,-47.696 -20.8358,-58.9225 z" /><path
                 id="path88"
                 style="fill:#781619;fill-opacity:1;fill-rule:nonzero;stroke:none"
                 d="m 8351.15,7791.4055 c 6.0781,17.1879 15.9706,43.3161 21.5058,58.9576 -1.9756,0.3877 -4.0391,0.7788 -6.1084,1.1617 -5.2617,-15.9863 -13.6093,-41.1487 -19.5321,-59.4186 1.3223,-0.2246 2.7012,-0.4595 4.1347,-0.7007 z" /><path
                 id="path90"
                 style="fill:#82171b;fill-opacity:1;fill-rule:nonzero;stroke:none"
                 d="m 8347.0153,7792.1062 c 5.9228,18.2699 14.2704,43.4323 19.5321,59.4186 -2.0703,0.3828 -4.1445,0.7582 -6.1406,1.1142 -4.6591,-16.745 -11.6112,-39.2405 -17.1913,-59.8902 1.21,-0.2027 2.4766,-0.418 3.7998,-0.6426 z" /><path
                 id="path92"
                 style="fill:#951a1f;fill-opacity:1;fill-rule:nonzero;stroke:none"
                 d="m 8343.2155,7792.7488 c 5.5801,20.6497 12.5322,43.1452 17.1913,59.8902 -1.9961,0.356 -3.914,0.6924 -5.6699,0.999 -4.0566,-17.5028 -9.7401,-37.2917 -14.9784,-60.3219 1.0938,-0.1748 2.2471,-0.3652 3.457,-0.5673 z" /><path
                 id="path94"
                 style="fill:#a81c22;fill-opacity:1;fill-rule:nonzero;stroke:none"
                 d="m 8339.7585,7793.3161 c 5.2383,23.0302 10.9218,42.8191 14.9784,60.3219 -1.7558,0.3067 -3.3496,0.5825 -4.6982,0.8169 -3.7822,-17.8475 -8.3027,-36.5501 -13.3856,-60.6622 0.9755,-0.1421 2.0117,-0.3018 3.1054,-0.4766 z" /><path
                 id="path96"
                 style="fill:#b11d23;fill-opacity:1;fill-rule:nonzero;stroke:none"
                 d="m 8336.6531,7793.7927 c -2.8047,0.4145 -3.6426,0.6709 -6,1.1079 1.581,14.2567 6.5527,44.4426 8.4374,61.3531 4.9287,-0.8457 6.2959,-0.9839 10.9482,-1.7988 -3.7822,-17.8475 -8.3027,-36.5501 -13.3856,-60.6622 z" /><path
                 id="path98"
                 style="fill:#b11d23;fill-opacity:1;fill-rule:nonzero;stroke:none"
                 d="m 8330.6531,7794.9006 c -2.7881,0.4805 -2.9717,0.7295 -5.7988,1.2353 0,13.831 0,49.4221 0,62.5748 6.2666,-1.1 9.2656,-1.582 14.2362,-2.457 -1.8847,-16.9105 -6.8564,-47.0964 -8.4374,-61.3531 z" /><path
                 id="path100"
                 style="fill:#781619;fill-opacity:1;fill-rule:nonzero;stroke:none"
                 d="m 8389.1947,7847.411 c -3.1152,0.5513 -11.619,2.0957 -16.5389,2.9521 6.1171,17.2675 73.6675,204.8713 79.3696,220.9342 2.9424,-0.4448 5.5214,-0.938 15.3251,-2.8774 -10.9355,-31.1453 -73.1802,-206.9445 -78.1558,-221.0089 z" /><path
                 id="path102"
                 style="fill:#781619;fill-opacity:1;fill-rule:nonzero;stroke:none"
                 d="m 8372.6558,7850.3631 c 6.1171,17.2675 73.6675,204.8713 79.3696,220.9342 -5.8174,0.9385 -10.5136,1.7104 -14.7128,2.4106 -5.4668,-16.7323 -64.9166,-204.2301 -70.7652,-222.1831 2.0693,-0.3829 4.1328,-0.774 6.1084,-1.1617 z" /><path
                 id="path104"
                 style="fill:#82171b;fill-opacity:1;fill-rule:nonzero;stroke:none"
                 d="m 8366.5474,7851.5248 c 5.8486,17.953 65.2984,205.4508 70.7652,222.1831 -4.2002,0.7002 -7.9023,1.3286 -11.7314,1.981 -4.9482,-18.2045 -59.9166,-203.5886 -65.1744,-223.0499 1.9961,-0.356 4.0703,-0.7314 6.1406,-1.1142 z" /><path
                 id="path106"
                 style="fill:#951a1f;fill-opacity:1;fill-rule:nonzero;stroke:none"
                 d="m 8360.4068,7852.639 c 5.2578,19.4613 60.2262,204.8454 65.1744,223.0499 -3.8291,0.6518 -7.7861,1.3271 -12.4931,2.1206 -4.4296,-19.6767 -53.6832,-203.2014 -58.3512,-224.1715 1.7559,-0.3066 3.6738,-0.643 5.6699,-0.999 z" /><path
                 id="path108"
                 style="fill:#a81c22;fill-opacity:1;fill-rule:nonzero;stroke:none"
                 d="m 8354.7369,7853.638 c 4.668,20.9701 53.9216,204.4948 58.3512,224.1715 -4.707,0.7939 -10.1649,1.7055 -16.9979,2.8305 -4.1943,-20.3456 -41.6521,-204.5295 -46.0515,-226.1851 1.3486,-0.2344 2.9424,-0.5102 4.6982,-0.8169 z" /><path
                 id="path110"
                 style="fill:#b11d23;fill-opacity:1;fill-rule:nonzero;stroke:none"
                 d="m 8350.0387,7854.4549 c -4.6523,0.8149 -6.0195,0.9531 -10.9482,1.7988 1.6065,14.6093 24.8515,211.6554 26.7811,229.0728 8.208,-1.4551 19.4843,-2.8442 30.2186,-4.6865 -4.1943,-20.3456 -41.6521,-204.5295 -46.0515,-226.1851 z" /><path
                 id="path112"
                 style="fill:#b11d23;fill-opacity:1;fill-rule:nonzero;stroke:none"
                 d="m 8339.0905,7856.2537 c -4.9706,0.875 -7.9696,1.357 -14.2362,2.457 0,25.3846 0,221.0446 0,234.7246 14.0702,-2.4545 30.6522,-6.3246 41.0173,-8.1088 -1.9296,-17.4174 -25.1746,-214.4635 -26.7811,-229.0728 z" /><path
                 id="path114"
                 style="fill:#781619;fill-opacity:1;fill-rule:nonzero;stroke:none"
                 d="m 8467.3505,8068.4199 c -9.8037,1.9394 -12.3827,2.4326 -15.3251,2.8774 6.5507,18.5097 42.9304,119.928 49.4548,138.3009 0,-18.6625 0,-25.5755 0,-44.7195 -5.4043,-15.2787 -28.2743,-80.1274 -34.1297,-96.4588 z" /><path
                 id="path116"
                 style="fill:#781619;fill-opacity:1;fill-rule:nonzero;stroke:none"
                 d="m 8452.0254,8071.2973 c 6.5507,18.5097 42.9304,119.928 49.4548,138.3009 0,11.0859 0,24.4276 0,39.991 -17.0927,-47.1091 -57.3952,-154.9981 -64.1676,-175.8813 4.1992,-0.7002 8.8954,-1.4721 14.7128,-2.4106 z" /><path
                 id="path118"
                 style="fill:#82171b;fill-opacity:1;fill-rule:nonzero;stroke:none"
                 d="m 8437.3126,8073.7079 c 6.7724,20.8832 47.0749,128.7722 64.1676,175.8813 0,15.5643 0,33.3494 0,53.3199 -40.3416,-110.3313 -68.6373,-201.1159 -75.899,-227.2202 3.8291,-0.6524 7.5312,-1.2808 11.7314,-1.981 z" /><path
                 id="path120"
                 style="fill:#951a1f;fill-opacity:1;fill-rule:nonzero;stroke:none"
                 d="m 8425.5812,8075.6889 c 7.2617,26.1043 35.5574,116.8889 75.899,227.2202 0,19.9716 0,42.1297 0,66.4381 -63.5914,-173.5536 -80.6411,-260.2122 -88.3921,-291.5377 4.707,-0.7935 8.664,-1.4688 12.4931,-2.1206 z" /><path
                 id="path122"
                 style="fill:#a81c22;fill-opacity:1;fill-rule:nonzero;stroke:none"
                 d="m 8413.0881,8077.8095 c 7.751,31.3255 24.8007,117.9841 88.3921,291.5377 0,24.3084 0,50.7692 0,79.3452 -74.1597,-202.2907 -97.4174,-334.3534 -105.39,-368.0524 6.833,-1.125 12.2909,-2.0366 16.9979,-2.8305 z" /><path
                 id="path124"
                 style="fill:#b11d23;fill-opacity:1;fill-rule:nonzero;stroke:none"
                 d="m 8396.0902,8080.64 c -10.7343,1.8423 -22.0106,3.2314 -30.2186,4.6865 5.7217,16.7406 33.9217,329.1571 135.6086,532.6305 0,-13.6982 0,-149.463 0,-169.2646 -74.1597,-202.2907 -97.4174,-334.3534 -105.39,-368.0524 z" /><path
                 id="path126"
                 style="fill:#b11d23;fill-opacity:1;fill-rule:nonzero;stroke:none"
                 d="m 8365.8716,8085.3265 c -10.3651,1.7842 -26.9471,5.6543 -41.0173,8.1088 0,13.3213 0,525.3635 0,539.4747 70.1627,-8.4287 105.2513,-11.706 176.6259,-14.953 -101.6869,-203.4734 -129.8869,-515.8899 -135.6086,-532.6305 z" /></g></g></g></g><g
         id="g128"><g
           clip-path="url(#clipPath134)"
           id="g130"><g
             clip-path="url(#clipPath140)"
             id="g136"><g
               transform="matrix(8.1500257,0,0,-8.1500257,-65829.387,74026.031)"
               id="g142"><path
                 id="path144"
                 style="fill:#781619;fill-opacity:1;fill-rule:nonzero;stroke:none"
                 d="m 8791.4041,8621.52 c 2.2226,0.8945 23.5753,9.5489 26.6417,10.796 -4.3389,-8.8888 -7.3799,-15.1017 -11.3428,-24.0129 -3.4141,0.7158 -16.8273,2.6817 -19.13,2.3272 2.5049,7.0879 2.2783,6.5049 3.8311,10.8897 z" /><path
                 id="path146"
                 style="fill:#781619;fill-opacity:1;fill-rule:nonzero;stroke:none"
                 d="m 8818.0458,8632.316 c -2.1699,-4.4444 -4.0146,-8.2198 -5.8125,-11.9982 0.3731,-0.071 0.8027,-0.096 1.249,-0.093 1.3643,3.9521 2.753,7.8506 4.6427,12.1231 -0.031,-0.013 -0.059,-0.023 -0.079,-0.032 z" /><path
                 id="path148"
                 style="fill:#781619;fill-opacity:1;fill-rule:nonzero;stroke:none"
                 d="m 8818.125,8632.3482 c -1.8897,-4.2725 -3.2784,-8.171 -4.6427,-12.1231 0.4454,0 0.9092,0.034 1.3487,0.072 1.0791,4.1827 2.1299,8.2003 3.4053,12.0958 -0.042,-0.017 -0.079,-0.031 -0.1113,-0.045 z" /><path
                 id="path150"
                 style="fill:#781619;fill-opacity:1;fill-rule:nonzero;stroke:none"
                 d="m 8812.2333,8620.3178 c -1.7979,-3.7783 -3.5488,-7.5586 -5.5303,-12.0147 0.7246,-0.1514 1.501,-0.334 2.2774,-0.5244 1.7949,4.4883 3.1367,8.4942 4.5019,12.4464 -0.4463,0 -0.8759,0.022 -1.249,0.093 z" /><path
                 id="path152"
                 style="fill:#7f171b;fill-opacity:1;fill-rule:nonzero;stroke:none"
                 d="m 8813.4823,8620.2251 c -1.3652,-3.9522 -2.707,-7.9581 -4.5019,-12.4464 0.7763,-0.1904 1.5527,-0.3897 2.2802,-0.5762 1.3858,4.5606 2.4922,8.9112 3.5704,13.0948 -0.4395,-0.038 -0.9033,-0.069 -1.3487,-0.072 z" /><path
                 id="path154"
                 style="fill:#781619;fill-opacity:1;fill-rule:nonzero;stroke:none"
                 d="m 8818.2363,8632.3931 c 0.041,0.017 0.087,0.035 0.1347,0.056 -0.33,-1.7598 -0.6933,-3.669 -1.0839,-5.6885 -0.2413,-0.087 -0.5323,-0.1992 -0.8272,-0.3076 0.5566,2.0146 1.1387,3.9931 1.7764,5.9404 z" /><path
                 id="path156"
                 style="fill:#85181c;fill-opacity:1;fill-rule:nonzero;stroke:none"
                 d="m 8816.4599,8626.4527 c 0.2949,0.1084 0.5859,0.2207 0.8272,0.3076 -0.3897,-2.0196 -0.8067,-4.1495 -1.2432,-6.3487 -0.3555,-0.031 -0.7725,-0.077 -1.2129,-0.1143 0.54,2.0918 1.0723,4.1417 1.6289,6.1554 z" /><path
                 id="path158"
                 style="fill:#781619;fill-opacity:1;fill-rule:nonzero;stroke:none"
                 d="m 8818.371,8632.4488 c 0.049,0.02 0.1006,0.041 0.1553,0.062 -0.1904,-1.6729 -0.4316,-3.5576 -0.709,-5.5899 -0.097,-0.011 -0.289,-0.074 -0.5302,-0.1611 0.3906,2.0195 0.7539,3.9287 1.0839,5.6885 z" /><path
                 id="path160"
                 style="fill:#8d191d;fill-opacity:1;fill-rule:nonzero;stroke:none"
                 d="m 8817.2871,8626.7603 c 0.2412,0.087 0.4336,0.1504 0.5302,0.1611 -0.2783,-2.0322 -0.5937,-4.211 -0.9355,-6.4717 -0.1905,0.014 -0.4834,-0.01 -0.8379,-0.038 0.4365,2.1992 0.8535,4.3291 1.2432,6.3487 z" /><path
                 id="path162"
                 style="fill:#8e191e;fill-opacity:1;fill-rule:nonzero;stroke:none"
                 d="m 8814.831,8620.2973 c 0.4404,0.037 0.8574,0.083 1.2129,0.1143 -0.4365,-2.1992 -0.8926,-4.4678 -1.3623,-6.7657 -0.4473,0.068 -0.9629,0.1514 -1.5206,0.2451 0.585,2.1807 1.1309,4.3145 1.67,6.4063 z" /><path
                 id="path164"
                 style="fill:#931a1e;fill-opacity:1;fill-rule:nonzero;stroke:none"
                 d="m 8813.161,8613.891 c 0.5577,-0.094 1.0733,-0.1767 1.5206,-0.2451 -0.4688,-2.2988 -0.9512,-4.626 -1.4395,-6.9424 -0.5772,0.1387 -1.2549,0.3125 -1.9815,0.499 0.6924,2.2803 1.3165,4.5079 1.9004,6.6885 z" /><path
                 id="path166"
                 style="fill:#9c1b20;fill-opacity:1;fill-rule:nonzero;stroke:none"
                 d="m 8816.0439,8620.4116 c 0.3545,0.032 0.6474,0.052 0.8379,0.038 -0.3408,-2.2618 -0.708,-4.6055 -1.0879,-6.9669 -0.2852,0.039 -0.6641,0.094 -1.1123,0.1631 0.4697,2.2979 0.9258,4.5665 1.3623,6.7657 z" /><path
                 id="path168"
                 style="fill:#a41c21;fill-opacity:1;fill-rule:nonzero;stroke:none"
                 d="m 8814.6816,8613.6459 c 0.4482,-0.069 0.8271,-0.124 1.1123,-0.1631 -0.3809,-2.3613 -0.7754,-4.7412 -1.17,-7.0742 -0.3271,0.05 -0.8046,0.1552 -1.3818,0.2949 0.4883,2.3164 0.9707,4.6436 1.4395,6.9424 z" /><path
                 id="path170"
                 style="fill:#781619;fill-opacity:1;fill-rule:nonzero;stroke:none"
                 d="m 8818.5263,8632.5113 c 0.3545,0.1406 0.2139,0.081 0.3848,0.1494 -0.1748,-1.5371 -0.2793,-3.3574 -0.3545,-5.378 -0.3106,-0.04 -0.2315,-0.2744 -0.7393,-0.3613 0.2774,2.0323 0.5186,3.917 0.709,5.5899 z" /><path
                 id="path172"
                 style="fill:#92191e;fill-opacity:1;fill-rule:nonzero;stroke:none"
                 d="m 8817.8173,8626.9214 c 0.5078,0.087 0.4287,0.3213 0.7393,0.3613 -0.076,-2.0205 -0.1231,-4.2412 -0.1826,-6.5801 -0.6192,0.021 -0.6446,-0.2851 -1.4922,-0.2529 0.3418,2.2607 0.6572,4.4395 0.9355,6.4717 z" /><path
                 id="path174"
                 style="fill:#a21c21;fill-opacity:1;fill-rule:nonzero;stroke:none"
                 d="m 8816.8818,8620.4497 c 0.8476,-0.032 0.873,0.2744 1.4922,0.2529 -0.06,-2.3389 -0.1319,-4.7959 -0.2578,-7.2881 -0.9278,0.084 -1.1358,-0.082 -2.3223,0.068 0.3799,2.3614 0.7471,4.7051 1.0879,6.9669 z" /><path
                 id="path176"
                 style="fill:#ad1d23;fill-opacity:1;fill-rule:nonzero;stroke:none"
                 d="m 8815.7939,8613.4828 c 1.1865,-0.1504 1.3945,0.016 2.3223,-0.068 -0.127,-2.4932 -0.3077,-5.0215 -0.584,-7.503 -1.0674,0.1123 -1.5674,0.292 -2.9083,0.4971 0.3946,2.333 0.7891,4.7129 1.17,7.0742 z" /><path
                 id="path178"
                 style="fill:#781619;fill-opacity:1;fill-rule:nonzero;stroke:none"
                 d="m 8818.9111,8632.6607 c 0.3682,0.1475 0.4902,0.1992 0.6211,0.252 0,-1.6778 0,-3.5577 0,-5.5997 -0.3037,-0.018 -0.455,0.072 -0.9775,-0.03 0.075,2.0206 0.1797,3.8409 0.3545,5.378 z" /><path
                 id="path180"
                 style="fill:#92191e;fill-opacity:1;fill-rule:nonzero;stroke:none"
                 d="m 8818.5566,8627.2827 c 0.5225,0.1026 0.6738,0.013 0.9775,0.03 10e-4,-2.042 10e-4,-4.2461 0,-6.5723 -0.6826,0.06 -0.3008,-0.035 -1.1621,-0.038 0.059,2.3389 0.1064,4.5596 0.1826,6.5801 z" /><path
                 id="path182"
                 style="fill:#a21c21;fill-opacity:1;fill-rule:nonzero;stroke:none"
                 d="m 8818.374,8620.7026 c 0.8613,0 0.4795,0.099 1.1621,0.038 0,-2.3272 0,-4.7754 0,-7.3077 -1.0615,0.1397 -0.2216,-0.1162 -1.4218,-0.019 0.1259,2.4922 0.1982,4.9492 0.2578,7.2881 z" /><path
                 id="path184"
                 style="fill:#ad1d23;fill-opacity:1;fill-rule:nonzero;stroke:none"
                 d="m 8818.1162,8613.4145 c 1.2002,-0.098 0.3603,0.1582 1.4218,0.019 0,-2.5312 0,-5.1455 0,-7.8037 -1.2334,0.1757 -0.6523,0.1406 -2.0068,0.2822 0.2763,2.4815 0.457,5.0098 0.584,7.503 z" /><path
                 id="path186"
                 style="fill:#781619;fill-opacity:1;fill-rule:nonzero;stroke:none"
                 d="m 8787.573,8610.6303 c 2.3027,0.3545 15.7159,-1.6114 19.13,-2.3272 -4.9346,-11.0958 -10.2735,-24.1584 -13.4601,-33.1467 -2.3222,0.4082 -14.7911,2.4922 -17.2091,2.917 2.3086,6.4942 8.337,23.4914 11.5392,32.5569 z" /><path
                 id="path188"
                 style="fill:#781619;fill-opacity:1;fill-rule:nonzero;stroke:none"
                 d="m 8806.703,8608.3031 c -4.9346,-11.0958 -10.2735,-24.1584 -13.4601,-33.1467 1.4336,-0.2412 2.8126,-0.4756 4.1348,-0.7002 2.9659,9.2637 7.0714,22.1486 11.6027,33.3225 -0.7764,0.1904 -1.5528,0.373 -2.2774,0.5244 z" /><path
                 id="path190"
                 style="fill:#82171b;fill-opacity:1;fill-rule:nonzero;stroke:none"
                 d="m 8808.9804,8607.7787 c -4.5313,-11.1739 -8.6368,-24.0588 -11.6027,-33.3225 1.3233,-0.2246 2.5899,-0.4404 3.7999,-0.6426 2.4795,9.8721 6.4385,22.0431 10.083,33.3889 -0.7275,0.1865 -1.5039,0.3858 -2.2802,0.5762 z" /><path
                 id="path192"
                 style="fill:#951a1f;fill-opacity:1;fill-rule:nonzero;stroke:none"
                 d="m 8811.2606,8607.2025 c -3.6445,-11.3458 -7.6035,-23.5168 -10.083,-33.3889 1.2099,-0.2031 2.3633,-0.3926 3.457,-0.5674 1.9942,10.4796 5.8506,21.9396 8.6075,33.4573 -0.5772,0.1387 -1.2549,0.3125 -1.9815,0.499 z" /><path
                 id="path194"
                 style="fill:#a81c22;fill-opacity:1;fill-rule:nonzero;stroke:none"
                 d="m 8813.2421,8606.7035 c -2.7569,-11.5177 -6.6133,-22.9777 -8.6075,-33.4573 1.0938,-0.1748 2.1299,-0.3349 3.1055,-0.4766 1.7725,10.756 4.5303,22.0432 6.8838,33.639 -0.3271,0.05 -0.8046,0.1552 -1.3818,0.2949 z" /><path
                 id="path196"
                 style="fill:#b11d23;fill-opacity:1;fill-rule:nonzero;stroke:none"
                 d="m 8814.6239,8606.4086 c 1.3409,-0.2051 1.8409,-0.3848 2.9083,-0.4971 -1.4141,-12.6944 -2.7784,-25.0832 -3.792,-34.2503 -2.3575,0.4375 -3.1954,0.6934 -6.0001,1.1084 1.7725,10.756 4.5303,22.0432 6.8838,33.639 z" /><path
                 id="path198"
                 style="fill:#b11d23;fill-opacity:1;fill-rule:nonzero;stroke:none"
                 d="m 8817.5322,8605.9115 c 1.3545,-0.1416 0.7734,-0.1065 2.0068,-0.2822 0,-13.5949 0,-28.0305 0,-35.2034 -2.8271,0.5058 -3.0107,0.7549 -5.7988,1.2353 1.0136,9.1671 2.3779,21.5559 3.792,34.2503 z" /><path
                 id="path200"
                 style="fill:#781619;fill-opacity:1;fill-rule:nonzero;stroke:none"
                 d="m 8776.0338,8578.0734 c 2.418,-0.4248 14.8869,-2.5088 17.2091,-2.917 -6.0781,-17.1876 -15.9708,-43.3167 -21.506,-58.9585 -4.9199,0.8565 -13.4239,2.4005 -16.5392,2.9522 4.462,12.6192 16.8869,47.6967 20.8361,58.9233 z" /><path
                 id="path202"
                 style="fill:#781619;fill-opacity:1;fill-rule:nonzero;stroke:none"
                 d="m 8793.2429,8575.1564 c -6.0781,-17.1876 -15.9708,-43.3167 -21.506,-58.9585 1.9756,-0.3877 4.0391,-0.7783 6.1085,-1.1611 5.2617,15.9864 13.6094,41.1487 19.5323,59.4194 -1.3222,0.2246 -2.7012,0.459 -4.1348,0.7002 z" /><path
                 id="path204"
                 style="fill:#82171b;fill-opacity:1;fill-rule:nonzero;stroke:none"
                 d="m 8797.3777,8574.4562 c -5.9229,-18.2707 -14.2706,-43.433 -19.5323,-59.4194 2.0703,-0.3838 4.1445,-0.7588 6.1406,-1.1143 4.6592,16.7453 11.6114,39.2406 17.1916,59.8911 -1.21,0.2022 -2.4766,0.418 -3.7999,0.6426 z" /><path
                 id="path206"
                 style="fill:#951a1f;fill-opacity:1;fill-rule:nonzero;stroke:none"
                 d="m 8801.1776,8573.8136 c -5.5802,-20.6505 -12.5324,-43.1458 -17.1916,-59.8911 1.9961,-0.3564 3.9141,-0.6923 5.67,-0.999 4.0567,17.5031 9.7403,37.2923 14.9786,60.3227 -1.0937,0.1748 -2.2471,0.3643 -3.457,0.5674 z" /><path
                 id="path208"
                 style="fill:#a81c22;fill-opacity:1;fill-rule:nonzero;stroke:none"
                 d="m 8804.6346,8573.2462 c -5.2383,-23.0304 -10.9219,-42.8196 -14.9786,-60.3227 1.7559,-0.3066 3.3496,-0.583 4.6983,-0.8174 3.7822,17.8478 8.3028,36.5511 13.3858,60.6635 -0.9756,0.1417 -2.0117,0.3018 -3.1055,0.4766 z" /><path
                 id="path210"
                 style="fill:#b11d23;fill-opacity:1;fill-rule:nonzero;stroke:none"
                 d="m 8807.7401,8572.7696 c 2.8047,-0.415 3.6426,-0.6709 6.0001,-1.1084 -1.5811,-14.2569 -6.5528,-44.4427 -8.4376,-61.3539 -4.9288,0.8457 -6.296,0.9834 -10.9483,1.7988 3.7822,17.8478 8.3028,36.5511 13.3858,60.6635 z" /><path
                 id="path212"
                 style="fill:#b11d23;fill-opacity:1;fill-rule:nonzero;stroke:none"
                 d="m 8813.7402,8571.6612 c 2.7881,-0.4804 2.9717,-0.7295 5.7988,-1.2353 0,-13.8312 0,-49.4223 0,-62.5757 -6.2666,1.1006 -9.2657,1.5821 -14.2364,2.4571 1.8848,16.9112 6.8565,47.097 8.4376,61.3539 z" /><path
                 id="path214"
                 style="fill:#781619;fill-opacity:1;fill-rule:nonzero;stroke:none"
                 d="m 8755.1977,8519.1501 c 3.1153,-0.5517 11.6193,-2.0957 16.5392,-2.9522 -6.1172,-17.2677 -73.6685,-204.8735 -79.3707,-220.9371 -2.9424,0.4453 -5.5215,0.9385 -15.3253,2.8779 10.9356,31.1458 73.1812,206.9469 78.1568,221.0114 z" /><path
                 id="path216"
                 style="fill:#781619;fill-opacity:1;fill-rule:nonzero;stroke:none"
                 d="m 8771.7369,8516.1979 c -6.1172,-17.2677 -73.6685,-204.8735 -79.3707,-220.9371 5.8174,-0.9385 10.5138,-1.71 14.713,-2.4102 5.4669,16.7316 64.9175,204.2329 70.7662,222.1862 -2.0694,0.3828 -4.1329,0.7734 -6.1085,1.1611 z" /><path
                 id="path218"
                 style="fill:#82171b;fill-opacity:1;fill-rule:nonzero;stroke:none"
                 d="m 8777.8454,8515.0368 c -5.8487,-17.9533 -65.2993,-205.4546 -70.7662,-222.1862 4.2002,-0.7002 7.9024,-1.3291 11.7316,-1.9814 4.9482,18.2052 59.9174,203.5913 65.1752,223.0533 -1.9961,0.3555 -4.0703,0.7305 -6.1406,1.1143 z" /><path
                 id="path220"
                 style="fill:#951a1f;fill-opacity:1;fill-rule:nonzero;stroke:none"
                 d="m 8783.986,8513.9225 c -5.2578,-19.462 -60.227,-204.8481 -65.1752,-223.0533 3.8291,-0.6514 7.7861,-1.3272 12.4932,-2.1202 4.4297,19.6769 53.684,203.2037 58.352,224.1745 -1.7559,0.3067 -3.6739,0.6426 -5.67,0.999 z" /><path
                 id="path222"
                 style="fill:#a81c22;fill-opacity:1;fill-rule:nonzero;stroke:none"
                 d="m 8789.656,8512.9235 c -4.668,-20.9708 -53.9223,-204.4976 -58.352,-224.1745 4.7071,-0.7939 10.1651,-1.706 16.9982,-2.8311 4.1943,20.3459 41.6526,204.5328 46.0521,226.1882 -1.3487,0.2344 -2.9424,0.5108 -4.6983,0.8174 z" /><path
                 id="path224"
                 style="fill:#b11d23;fill-opacity:1;fill-rule:nonzero;stroke:none"
                 d="m 8794.3543,8512.1061 c 4.6523,-0.8154 6.0195,-0.9531 10.9483,-1.7988 -1.6065,-14.6095 -24.8518,-211.6578 -26.7815,-229.0759 -8.208,1.4551 -19.4845,2.8447 -30.2189,4.6865 4.1943,20.3459 41.6526,204.5328 46.0521,226.1882 z" /><path
                 id="path226"
                 style="fill:#b11d23;fill-opacity:1;fill-rule:nonzero;stroke:none"
                 d="m 8805.3026,8510.3073 c 4.9707,-0.875 7.9698,-1.3565 14.2364,-2.4571 0,-25.3849 0,-221.0475 0,-234.7273 -14.0704,2.4542 -30.6525,6.3243 -41.0179,8.1085 1.9297,17.4181 25.175,214.4664 26.7815,229.0759 z" /><path
                 id="path228"
                 style="fill:#781619;fill-opacity:1;fill-rule:nonzero;stroke:none"
                 d="m 8677.0409,8298.1387 c 9.8038,-1.9394 12.3829,-2.4326 15.3253,-2.8779 -6.5508,-18.5099 -42.931,-119.9296 -49.4554,-138.3023 0,18.6623 0,25.5759 0,44.7196 5.4043,15.2794 28.2746,80.1285 34.1301,96.4606 z" /><path
                 id="path230"
                 style="fill:#781619;fill-opacity:1;fill-rule:nonzero;stroke:none"
                 d="m 8692.3662,8295.2608 c -6.5508,-18.5099 -42.931,-119.9296 -49.4554,-138.3023 0,-11.086 0,-24.4284 0,-39.992 17.0929,47.1102 57.3959,155.0002 64.1684,175.8841 -4.1992,0.7002 -8.8956,1.4717 -14.713,2.4102 z" /><path
                 id="path232"
                 style="fill:#82171b;fill-opacity:1;fill-rule:nonzero;stroke:none"
                 d="m 8707.0792,8292.8506 c -6.7725,-20.8839 -47.0755,-128.7739 -64.1684,-175.8841 0,-15.5641 0,-33.3493 0,-53.3207 40.3421,110.3329 68.6382,201.1187 75.9,227.2234 -3.8292,0.6523 -7.5314,1.2812 -11.7316,1.9814 z" /><path
                 id="path234"
                 style="fill:#951a1f;fill-opacity:1;fill-rule:nonzero;stroke:none"
                 d="m 8718.8108,8290.8692 c -7.2618,-26.1047 -35.5579,-116.8905 -75.9,-227.2234 0,-19.9718 0,-42.1297 0,-66.4389 63.5922,173.5554 80.6422,260.2157 88.3932,291.5421 -4.7071,0.793 -8.6641,1.4688 -12.4932,2.1202 z" /><path
                 id="path236"
                 style="fill:#a81c22;fill-opacity:1;fill-rule:nonzero;stroke:none"
                 d="m 8731.304,8288.749 c -7.751,-31.3264 -24.801,-117.9867 -88.3932,-291.5421 0,-24.3093 0,-50.7695 0,-79.3458 74.1607,202.2929 97.4187,334.3574 105.3914,368.0568 -6.8331,1.1251 -12.2911,2.0372 -16.9982,2.8311 z" /><path
                 id="path238"
                 style="fill:#b11d23;fill-opacity:1;fill-rule:nonzero;stroke:none"
                 d="m 8748.3022,8285.9179 c 10.7344,-1.8418 22.0109,-3.2314 30.2189,-4.6865 -5.7217,-16.7404 -33.9221,-344.1153 -135.6103,-547.5914 0,13.6979 0,164.4187 0,184.2211 74.1607,202.2929 97.4187,334.3574 105.3914,368.0568 z" /><path
                 id="path240"
                 style="fill:#b11d23;fill-opacity:1;fill-rule:nonzero;stroke:none"
                 d="m 8778.5211,8281.2314 c 10.3654,-1.7842 26.9475,-5.6543 41.0179,-8.1085 0,-13.3214 0,-525.371 0,-539.4824 -13.8751,-5e-4 -154.2501,-5e-4 -176.6282,-5e-4 101.6882,203.4761 129.8886,530.851 135.6103,547.5914 z" /></g></g></g></g><path
         id="path242"
         style="fill:#e61d25;fill-opacity:1;fill-rule:nonzero;stroke:none"
         d="M 3457.94,10996.6 H 2018.44 L 4567.45,3789.42 c 716.32,-18.09 1482.6,-121.92 1482.6,-121.92 l -2592.11,7329.1" /></g></g></svg>