<?xml version="1.0" encoding="UTF-8" standalone="no"?>
<svg
   xmlns:dc="http://purl.org/dc/elements/1.1/"
   xmlns:cc="http://creativecommons.org/ns#"
   xmlns:rdf="http://www.w3.org/1999/02/22-rdf-syntax-ns#"
   xmlns:svg="http://www.w3.org/2000/svg"
   xmlns="http://www.w3.org/2000/svg"
   viewBox="0 0 2400 1006.6667"
   height="1006.6667"
   width="2400"
   xml:space="preserve"
   id="svg2"
   version="1.1"><metadata
     id="metadata8"><rdf:RDF><cc:Work
         rdf:about=""><dc:format>image/svg+xml</dc:format><dc:type
           rdf:resource="http://purl.org/dc/dcmitype/StillImage" /></cc:Work></rdf:RDF></metadata><defs
     id="defs6" /><g
     transform="matrix(1.3333333,0,0,-1.3333333,0,1006.6667)"
     id="g10"><g
       transform="scale(0.122699)"
       id="g12"><path
         id="path14"
         style="fill:#ed1c24;fill-opacity:1;fill-rule:nonzero;stroke:none"
         d="M 9262.07,4638.96 H 8772.33 V 1899.99 c 445.08,-15.31 888.27,-37.76 1329.67,-67.19 v 482.55 c -279.21,18.62 -559.16,34.41 -839.93,47.48 z m 3892.03,-0.27 h -538 l -354.6,-821.94 -318.6,821.94 H 11413 L 11982.5,3170 11360.9,1729.17 c 171.9,-16.78 343.4,-34.67 514.7,-53.58 l 361.5,837.75 358.1,-923.5 c 186.4,-23.97 372.4,-48.99 558.1,-75.49 l 0.8,0.32 -638,1645.41 z m -6062.89,-2714.76 489.76,0.11 v 1114.13 h 663.9 v 482.56 h -663.9 v 631.04 h 877.42 v 486.89 H 7091.21 Z M 5262.36,4151.8 h 512.57 V 1895.24 c 162.97,6.15 326.27,11.22 489.75,15.5 V 4151.8 h 512.55 v 486.89 H 5262.36 Z M 3588.02,1754.99 c 451.39,41.02 904.86,74.82 1360.38,101.06 v 482.61 c -291.04,-16.82 -581.26,-36.74 -870.64,-59.5 v 730.58 c 189.87,1.89 439.89,7.68 661.38,4.93 v 482.59 c -176.95,0.44 -461.35,-2.47 -661.38,-5.03 v 659.54 h 870.64 v 486.89 H 3588.02 Z m -960.69,1115.6 -637.86,1768.1 h -465.44 v -3124.4 c 162.93,23.19 326.17,45.4 489.74,66.7 v 1699.04 l 567.16,-1629.27 c 178.39,20.68 357.1,40.28 536.15,58.69 V 4638.69 H 2627.33 Z M 10505.8,1803.74 c 163.4,-12.51 326.7,-25.93 489.8,-40.44 v 2875.39 h -489.8 V 1803.74" /></g></g></svg>